<?xml version="1.0" standalone="no"?>
<!DOCTYPE svg PUBLIC "-//W3C//DTD SVG 20010904//EN"
 "http://www.w3.org/TR/2001/REC-SVG-20010904/DTD/svg10.dtd">
<svg version="1.0" xmlns="http://www.w3.org/2000/svg"
 width="700.000000pt" height="700.000000pt" viewBox="0 0 700.000000 700.000000"
 preserveAspectRatio="xMidYMid meet">
<metadata>
Created by potrace 1.14, written by Peter Selinger 2001-2017
</metadata>
<g transform="translate(0.000000,700.000000) scale(0.100000,-0.100000)"
fill="#000000" stroke="none">
<path d="M3158 6995 c-2 -1 -52 -5 -113 -9 -195 -11 -403 -31 -530 -51 -16 -3
-48 -7 -70 -10 -822 -112 -1536 -404 -1882 -768 -120 -127 -204 -268 -246
-415 l-22 -77 -3 -2400 c-2 -1745 0 -2416 8 -2460 43 -227 311 -418 781 -554
111 -32 289 -76 349 -86 19 -3 55 -10 80 -15 67 -14 286 -49 355 -55 33 -4 67
-8 75 -10 8 -2 47 -7 85 -11 39 -3 77 -8 85 -9 37 -7 183 -19 345 -30 61 -3
128 -8 150 -10 285 -27 1435 -27 1790 0 28 2 96 6 152 10 55 3 112 8 125 10
12 2 64 6 115 10 50 3 100 7 110 9 10 2 45 7 78 10 33 4 80 9 105 12 42 5 265
38 335 50 175 29 433 90 585 139 360 115 584 262 672 443 l33 67 0 2440 0
2440 -23 78 c-91 315 -358 582 -797 799 -60 30 -141 67 -180 83 -38 15 -83 33
-100 40 -74 31 -377 127 -443 140 -9 2 -53 12 -97 23 -44 11 -105 25 -135 31
-30 6 -66 14 -80 17 -24 5 -166 30 -221 39 -14 3 -43 7 -65 10 -21 2 -50 7
-64 9 -14 3 -52 8 -85 11 -33 3 -71 7 -85 10 -28 5 -96 11 -215 21 -44 3 -100
8 -125 10 -52 5 -827 13 -832 9z m732 -589 c180 -13 234 -17 353 -31 23 -3 63
-7 89 -10 26 -2 76 -9 110 -14 35 -6 81 -13 103 -16 22 -3 51 -8 65 -11 14 -2
36 -6 50 -9 14 -3 48 -9 75 -15 64 -13 94 -19 125 -25 78 -14 325 -83 454
-127 376 -126 659 -297 760 -456 33 -52 55 -135 48 -182 -34 -258 -539 -538
-1257 -699 -77 -18 -156 -34 -175 -37 -19 -2 -55 -9 -80 -14 -25 -5 -65 -12
-90 -16 -25 -3 -52 -8 -60 -9 -8 -2 -44 -6 -80 -10 -36 -4 -72 -8 -80 -10 -8
-1 -44 -6 -80 -10 -36 -4 -78 -8 -95 -10 -16 -2 -77 -6 -135 -10 -58 -4 -132
-8 -165 -11 -84 -5 -565 -5 -655 1 -169 10 -257 16 -290 20 -19 2 -62 7 -95
10 -33 3 -107 13 -165 21 -58 8 -121 16 -140 19 -19 3 -46 7 -60 10 -14 3 -52
10 -85 15 -589 103 -1125 318 -1339 537 -160 164 -158 310 5 473 138 138 368
261 689 369 281 95 698 187 985 216 33 3 69 8 80 10 11 2 52 6 90 10 39 3 88
8 109 10 22 2 103 7 180 11 78 3 142 7 143 8 5 4 541 -3 613 -8z m-2889 -1807
c214 -118 518 -236 794 -309 94 -25 329 -80 365 -85 14 -2 63 -10 110 -19 112
-20 157 -27 295 -45 129 -16 166 -20 245 -26 41 -4 91 -8 110 -10 211 -25 836
-25 1150 -1 109 9 207 17 235 21 17 2 53 7 80 10 28 3 61 8 75 10 14 2 48 6
75 10 28 3 102 15 165 26 63 12 126 23 140 25 14 3 57 11 95 20 39 8 80 17 93
19 55 12 74 17 197 51 190 53 407 128 525 181 116 52 229 109 295 148 41 25
77 45 78 45 1 0 2 -151 2 -335 0 -184 -1 -335 -3 -335 -1 0 -55 -16 -120 -36
-64 -19 -214 -65 -332 -100 -118 -36 -251 -75 -295 -89 -147 -44 -337 -95
-415 -111 -14 -3 -63 -14 -110 -24 -97 -22 -272 -55 -375 -70 -38 -6 -81 -13
-95 -15 -71 -11 -246 -32 -345 -41 -33 -3 -80 -7 -105 -9 -290 -28 -834 -23
-1150 10 -25 2 -72 7 -105 10 -33 3 -93 10 -134 16 -41 6 -87 12 -103 14 -62
8 -229 37 -323 57 -55 11 -107 21 -115 23 -281 57 -721 189 -1010 304 l-115
46 1 335 c1 184 2 339 3 344 0 4 13 0 29 -10 15 -10 57 -34 93 -55z m5124
-2429 c0 -796 -3 -1217 -10 -1225 -21 -25 -292 -123 -415 -149 -14 -3 -86 -19
-160 -35 -147 -32 -147 -32 -330 -61 -132 -20 -142 -22 -340 -45 -154 -18
-200 -22 -455 -40 -524 -38 -1303 -39 -1825 -1 -181 13 -227 17 -270 21 -25 3
-70 7 -100 10 -30 3 -71 7 -90 10 -19 3 -60 7 -90 10 -30 3 -64 8 -75 10 -11
2 -42 7 -70 10 -125 15 -423 69 -555 101 -139 34 -308 89 -395 128 l-70 32 0
1205 0 1205 125 -44 c501 -175 989 -289 1525 -356 152 -19 229 -27 296 -31 30
-2 110 -7 179 -11 233 -15 802 -9 1000 11 19 1 71 6 114 10 43 4 86 8 95 10 9
1 43 6 76 9 83 10 182 23 225 31 8 2 38 6 65 9 82 11 408 75 516 101 35 9 75
18 88 21 48 10 280 75 411 114 74 23 142 43 150 45 8 3 83 25 165 50 83 25
158 48 169 50 10 2 21 7 24 10 25 25 27 -52 27 -1215z"/>
</g>
</svg>
